<svg width="18" height="12" viewBox="0 0 18 12" fill="none" xmlns="http://www.w3.org/2000/svg">
<path d="M12.7502 7.125C15.5165 7.125 17.9252 8.1069 17.9252 10.3179C17.9252 11.4834 17.4424 12 16.4561 12L11.3623 12C11.5611 11.6226 11.6812 11.1695 11.7137 10.65L16.4561 10.65C16.4939 10.65 16.5219 10.6498 16.5415 10.6505L16.5587 10.6515L16.5615 10.6303C16.567 10.5721 16.5752 10.4707 16.5752 10.3179C16.5752 9.18366 14.8368 8.475 12.7502 8.475C12.2406 8.475 11.7518 8.51727 11.304 8.59767C11.0693 8.1475 10.7412 7.75377 10.339 7.41653C11.0666 7.21969 11.8911 7.125 12.7502 7.125ZM5.2502 7.125C8.01653 7.125 10.4252 8.1069 10.4252 10.3179C10.4252 11.4834 9.94241 12 8.95608 12H1.54431C0.557977 12 0.0751953 11.4834 0.0751953 10.3179C0.0751953 8.1069 2.48386 7.125 5.2502 7.125ZM5.2502 8.475C3.16359 8.475 1.4252 9.18366 1.4252 10.3179C1.4252 10.4817 1.43457 10.5865 1.4401 10.6422L1.4402 10.6515L1.45621 10.6506C1.46608 10.6502 1.4782 10.65 1.49281 10.65L8.95608 10.65C8.99393 10.65 9.02186 10.6498 9.04148 10.6505L9.05869 10.6515L9.06146 10.6303C9.06704 10.5721 9.07519 10.4707 9.07519 10.3179C9.07519 9.18366 7.3368 8.475 5.2502 8.475ZM12.7502 0.150009C14.4697 0.150009 15.8627 1.543 15.8627 3.26251C15.8627 4.98202 14.4697 6.37501 12.7502 6.37501C11.0307 6.37501 9.63769 4.98202 9.63769 3.26251C9.63769 1.543 11.0307 0.150009 12.7502 0.150009ZM5.2502 0.150009C6.96971 0.150009 8.36269 1.543 8.36269 3.26251C8.36269 4.98202 6.96971 6.37501 5.2502 6.37501C3.53068 6.37501 2.1377 4.98202 2.1377 3.26251C2.1377 1.543 3.53068 0.150009 5.2502 0.150009ZM12.7502 1.50001C11.7763 1.50001 10.9877 2.28858 10.9877 3.26251C10.9877 4.23644 11.7763 5.02501 12.7502 5.02501C13.7241 5.02501 14.5127 4.23644 14.5127 3.26251C14.5127 2.28858 13.7241 1.50001 12.7502 1.50001ZM5.2502 1.50001C4.27627 1.50001 3.4877 2.28858 3.4877 3.26251C3.4877 4.23644 4.27627 5.02501 5.2502 5.02501C6.22412 5.02501 7.01269 4.23644 7.01269 3.26251C7.01269 2.28858 6.22412 1.50001 5.2502 1.50001Z" fill="#1DC9B7"/>
</svg>
