<svg width="12" height="11" viewBox="0 0 12 11" fill="none" xmlns="http://www.w3.org/2000/svg">
<path d="M3.0002 0.574997C3.37299 0.574997 3.67519 0.916475 3.67519 1.33771L3.67445 7.97076L4.7729 6.73059C5.01453 6.45756 5.39379 6.4348 5.65837 6.66233L5.72749 6.73059C5.9911 7.02845 5.9911 7.51137 5.72749 7.80923L3.47749 10.3516C3.21389 10.6495 2.7865 10.6495 2.5229 10.3516L0.272898 7.80923C0.00929433 7.51137 0.00929433 7.02845 0.272898 6.73059C0.536502 6.43274 0.963888 6.43274 1.22749 6.73059L2.32445 7.97076L2.3252 1.33771C2.3252 0.948877 2.5827 0.628004 2.91552 0.58094L3.0002 0.574997ZM9.47749 0.79839L11.7275 3.34076C11.9911 3.63862 11.9911 4.12154 11.7275 4.4194C11.4639 4.71726 11.0365 4.71726 10.7729 4.4194L9.67445 3.17839L9.67519 9.81228C9.67519 10.2335 9.37299 10.575 9.00019 10.575C8.6274 10.575 8.3252 10.2335 8.3252 9.81228L8.32444 3.17839L7.22749 4.4194C6.96389 4.71726 6.5365 4.71726 6.2729 4.4194C6.00929 4.12154 6.00929 3.63862 6.2729 3.34076L8.5229 0.79839C8.7865 0.500533 9.21389 0.500533 9.47749 0.79839Z" fill="#1DC9B7"/>
</svg>
