<svg width="16" height="16" viewBox="0 0 16 16" fill="none" xmlns="http://www.w3.org/2000/svg">
<path d="M4.93845 8.75C5.44706 8.75 5.79166 8.81654 6.15288 9.00972C6.51036 9.20091 6.79899 9.48954 6.99018 9.84702C7.16189 10.1681 7.23355 10.4761 7.24736 10.8977L7.2499 11.0615V13.0385C7.2499 13.5471 7.18336 13.8918 6.99018 14.253C6.79899 14.6105 6.51036 14.8991 6.15288 15.0903C5.8318 15.262 5.52384 15.3336 5.10216 15.3474L4.93845 15.35H2.96136C2.45275 15.35 2.10814 15.2834 1.74693 15.0903C1.38944 14.8991 1.10081 14.6105 0.909629 14.253C0.737914 13.9319 0.666254 13.6239 0.652449 13.2022L0.649902 13.0385V11.0615C0.649902 10.5528 0.716449 10.2082 0.909629 9.84702C1.10081 9.48954 1.38944 9.20091 1.74693 9.00972C2.06801 8.83801 2.37597 8.76635 2.79765 8.75254L2.96136 8.75H4.93845ZM13.0384 8.75C13.5471 8.75 13.8917 8.81654 14.2529 9.00972C14.6104 9.20091 14.899 9.48954 15.0902 9.84702C15.2619 10.1681 15.3336 10.4761 15.3474 10.8977L15.3499 11.0615V13.0385C15.3499 13.5471 15.2834 13.8918 15.0902 14.253C14.899 14.6105 14.6104 14.8991 14.2529 15.0903C13.9318 15.262 13.6238 15.3336 13.2022 15.3474L13.0384 15.35H11.0614C10.5528 15.35 10.2081 15.2834 9.84693 15.0903C9.48944 14.8991 9.20082 14.6105 9.00963 14.253C8.83792 13.9319 8.76626 13.6239 8.75245 13.2022L8.7499 13.0385V11.0615C8.7499 10.5528 8.81645 10.2082 9.00963 9.84702C9.20082 9.48954 9.48944 9.20091 9.84693 9.00972C10.168 8.83801 10.476 8.76635 10.8977 8.75254L11.0614 8.75H13.0384ZM4.93845 10.1H2.96136C2.62704 10.1 2.50581 10.1348 2.38359 10.2002C2.26136 10.2655 2.16544 10.3615 2.10008 10.4837C2.04288 10.5906 2.00908 10.6968 2.00153 10.9457L1.9999 11.0615V13.0385C1.9999 13.3729 2.03471 13.4941 2.10008 13.6163C2.16544 13.7385 2.26136 13.8345 2.38359 13.8998C2.49053 13.957 2.59672 13.9908 2.84556 13.9984L2.96136 14H4.93845C5.27277 14 5.394 13.9652 5.51622 13.8998C5.63844 13.8345 5.73436 13.7385 5.79973 13.6163C5.85692 13.5094 5.89072 13.4032 5.89828 13.1543L5.8999 13.0385V11.0615C5.8999 10.7271 5.86509 10.6059 5.79973 10.4837C5.73436 10.3615 5.63844 10.2655 5.51622 10.2002C5.394 10.1348 5.27277 10.1 4.93845 10.1ZM13.0384 10.1H11.0614C10.727 10.1 10.6058 10.1348 10.4836 10.2002C10.3614 10.2655 10.2654 10.3615 10.2001 10.4837C10.1429 10.5906 10.1091 10.6968 10.1015 10.9457L10.0999 11.0615V13.0385C10.0999 13.3729 10.1347 13.4941 10.2001 13.6163C10.2654 13.7385 10.3614 13.8345 10.4836 13.8998C10.5905 13.957 10.6967 13.9908 10.9456 13.9984L11.0614 14H13.0384C13.3728 14 13.494 13.9652 13.6162 13.8998C13.7384 13.8345 13.8344 13.7385 13.8997 13.6163C13.9569 13.5094 13.9907 13.4032 13.9983 13.1543L13.9999 13.0385V11.0615C13.9999 10.7271 13.9651 10.6059 13.8997 10.4837C13.8344 10.3615 13.7384 10.2655 13.6162 10.2002C13.494 10.1348 13.3728 10.1 13.0384 10.1ZM12.642 0.24246C12.985 0.346427 13.2504 0.509959 13.5524 0.790149L13.6844 0.917539L15.0824 2.31555C15.442 2.67519 15.6386 2.96592 15.7574 3.35794C15.875 3.74591 15.875 4.15409 15.7574 4.54206C15.6535 4.88507 15.4899 5.15054 15.2098 5.45248L15.0824 5.58444L13.6844 6.98245C13.3247 7.34209 13.034 7.53871 12.642 7.65753C12.254 7.77512 11.8458 7.77512 11.4578 7.65753C11.1148 7.55357 10.8494 7.39003 10.5474 7.10984L10.4155 6.98245L9.01745 5.58444C8.65781 5.2248 8.46119 4.93407 8.34237 4.54206C8.22478 4.15409 8.22478 3.74591 8.34237 3.35794C8.44633 3.01492 8.60987 2.74946 8.89006 2.44752L9.01745 2.31555L10.4155 0.917539C10.7751 0.557898 11.0658 0.361279 11.4578 0.24246C11.8458 0.124868 12.254 0.124868 12.642 0.24246ZM4.93845 0.649997C5.44706 0.649997 5.79166 0.716544 6.15288 0.909724C6.51036 1.10091 6.79899 1.38954 6.99018 1.74702C7.18336 2.10824 7.2499 2.45284 7.2499 2.96145V4.93854C7.2499 5.44715 7.18336 5.79176 6.99018 6.15297C6.79899 6.51046 6.51036 6.79908 6.15288 6.99027C5.79166 7.18345 5.44706 7.25 4.93845 7.25H2.96136C2.45275 7.25 2.10814 7.18345 1.74693 6.99027C1.38944 6.79908 1.10081 6.51046 0.909629 6.15297C0.716449 5.79176 0.649902 5.44715 0.649902 4.93854V2.96145C0.649902 2.45284 0.716449 2.10824 0.909629 1.74702C1.10081 1.38954 1.38944 1.10091 1.74693 0.909724C2.10814 0.716544 2.45275 0.649997 2.96136 0.649997H4.93845ZM11.8494 1.53442C11.7334 1.5696 11.6344 1.62078 11.4531 1.7914L11.3701 1.87213L9.97204 3.27014C9.73564 3.50654 9.67453 3.61688 9.63433 3.74953C9.59412 3.88217 9.59412 4.01782 9.63433 4.15047C9.66951 4.26653 9.72069 4.36552 9.89131 4.54682L9.97204 4.62985L11.3701 6.02786C11.6065 6.26426 11.7168 6.32537 11.8494 6.36557C11.9821 6.40578 12.1177 6.40578 12.2504 6.36557C12.3664 6.33039 12.4654 6.27921 12.6467 6.10859L12.7298 6.02786L14.1278 4.62985C14.3642 4.39345 14.4253 4.28311 14.4655 4.15047C14.5057 4.01782 14.5057 3.88217 14.4655 3.74953C14.4303 3.63346 14.3791 3.53448 14.2085 3.35317L14.1278 3.27014L12.7298 1.87213C12.4934 1.63573 12.383 1.57462 12.2504 1.53442C12.1177 1.49422 11.9821 1.49422 11.8494 1.53442ZM4.93845 2H2.96136C2.62704 2 2.50581 2.03481 2.38359 2.10017C2.26136 2.16554 2.16544 2.26146 2.10008 2.38368C2.03471 2.5059 1.9999 2.62713 1.9999 2.96145V4.93854C1.9999 5.27286 2.03471 5.39409 2.10008 5.51631C2.16544 5.63854 2.26136 5.73446 2.38359 5.79982C2.50581 5.86519 2.62704 5.9 2.96136 5.9H4.93845C5.27277 5.9 5.394 5.86519 5.51622 5.79982C5.63844 5.73446 5.73436 5.63854 5.79973 5.51631C5.86509 5.39409 5.8999 5.27286 5.8999 4.93854V2.96145C5.8999 2.62713 5.86509 2.5059 5.79973 2.38368C5.73436 2.26146 5.63844 2.16554 5.51622 2.10017C5.394 2.03481 5.27277 2 4.93845 2Z" fill="#1DC9B7"/>
</svg>
