<svg width="16" height="15" viewBox="0 0 16 15" fill="none" xmlns="http://www.w3.org/2000/svg">
<path d="M8.54167 0.459394C9.44756 0.487593 10.0366 0.986001 10.3472 1.92557L10.3964 2.08625L10.4345 2.2301C10.4483 2.2855 10.4656 2.34449 10.4858 2.40575L10.5288 2.52527L10.5543 2.53802L10.606 2.52092L10.7063 2.48253L10.8231 2.43166C11.8835 1.93801 12.6992 2.02963 13.3634 2.75955L13.4573 2.86817L14.0725 3.63055C14.6206 4.35231 14.604 5.12376 14.0693 5.95643L13.9754 6.09578L13.8876 6.21588C13.8525 6.2625 13.8167 6.31417 13.7811 6.36969L13.728 6.45571L13.7028 6.49877L13.7058 6.51377L13.7745 6.55913L13.8694 6.61644L13.9845 6.67894C15.0263 7.21061 15.4563 7.90979 15.2904 8.88107L15.2626 9.02168L15.0796 9.81536C14.961 10.329 14.8679 10.5721 14.5015 10.9058C14.1455 11.2299 13.7394 11.3637 13.2028 11.4081L13.0378 11.4188L12.8891 11.4235C12.8314 11.4246 12.7694 11.4282 12.7045 11.4342L12.5688 11.4503L12.5787 11.5571L12.5887 11.6289L12.6129 11.763C12.8553 12.9072 12.5826 13.6814 11.7219 14.1644L11.595 14.2314L10.7138 14.6593C9.8872 15.0311 9.13925 14.8413 8.44821 14.133L8.33356 14.0102L8.23629 13.8976C8.19837 13.8524 8.1556 13.8055 8.10897 13.7579L8.03628 13.686L7.99904 13.6515L7.9303 13.7169L7.85154 13.7979L7.76329 13.8976C7.04893 14.7478 6.29497 15.053 5.38112 14.6976L5.24947 14.6423L4.46091 14.2591L4.22666 14.1392C3.86962 13.9442 3.66925 13.7575 3.47346 13.344C3.26733 12.9087 3.25348 12.4812 3.3534 11.9316L3.38672 11.763C3.39865 11.7067 3.40908 11.6456 3.4178 11.5811L3.43154 11.4525L3.42854 11.4495L3.35078 11.4391L3.24091 11.4293L3.11049 11.4235C1.94103 11.4024 1.24805 10.9625 0.971031 10.0152L0.934279 9.87645L0.715593 8.92157C0.539287 8.03255 0.892407 7.34645 1.73803 6.83246L1.88352 6.74838L2.01512 6.67894C2.0667 6.65262 2.12106 6.62209 2.17697 6.58808L2.29304 6.51227L2.29604 6.49802L2.24913 6.4171L2.18852 6.32322L2.11203 6.21588C1.40871 5.28131 1.32873 4.4644 1.9046 3.66293L1.99133 3.54853L2.60915 2.78832C3.20117 2.10205 3.95922 1.95791 4.88487 2.30782L5.0407 2.37071L5.17644 2.43166C5.22751 2.45543 5.28339 2.47885 5.34285 2.50142L5.44454 2.53727L5.47154 2.52452L5.49676 2.45804L5.53057 2.35458L5.5651 2.2301C5.83444 1.15274 6.3783 0.547901 7.35711 0.466763L7.49992 0.45874L8.54167 0.459394ZM8.49967 1.80874H7.49992L7.39536 1.8164C7.18082 1.84434 7.04067 1.96014 6.90584 2.44016L6.87479 2.55752L6.83244 2.71184C6.75372 2.97623 6.63473 3.27374 6.48148 3.56259C6.17809 3.67132 5.88977 3.8117 5.62097 3.98118C5.30468 3.91706 5.00309 3.82301 4.75141 3.71899L4.4889 3.60279C4.30222 3.52283 4.1624 3.48203 4.0516 3.47211L3.98845 3.46979C3.85524 3.47257 3.76729 3.52728 3.68232 3.61424L3.63136 3.67013L3.03951 4.39931L2.96848 4.49333C2.83093 4.69157 2.81035 4.86835 3.11463 5.29988L3.28577 5.53675C3.4447 5.76904 3.60406 6.05536 3.73418 6.36281C3.63711 6.65102 3.56843 6.95228 3.53163 7.26387C3.28123 7.48063 3.0144 7.66636 2.77139 7.80443L2.5147 7.94174C2.05204 8.19622 1.99304 8.36412 2.02977 8.6026L2.0398 8.65895L2.25002 9.57427L2.28038 9.68813C2.35192 9.91857 2.47855 10.0436 3.00593 10.0695L3.29644 10.0804C3.57465 10.0979 3.89491 10.1478 4.21376 10.2333C4.38234 10.4951 4.57732 10.7382 4.79587 10.9589C4.80832 11.3538 4.77181 11.7388 4.70739 12.0428C4.55657 12.7546 4.69697 12.8693 4.99501 13.0174L5.83958 13.4281C5.92907 13.4684 6.00905 13.4955 6.09216 13.4945L6.1425 13.4902C6.2783 13.4695 6.4286 13.3689 6.64523 13.1267L6.83858 12.9055C7.03111 12.6965 7.27704 12.4747 7.54996 12.2778L7.77343 12.2944L7.99979 12.3L8.22618 12.2943L8.44977 12.2772C8.72257 12.4746 8.96848 12.6965 9.16101 12.9055L9.35435 13.1267C9.59806 13.3992 9.75782 13.4925 9.90743 13.4945L9.95702 13.4918C10.0009 13.4867 10.0447 13.4744 10.0902 13.4572L10.16 13.4281L11.0046 13.0174L11.1087 12.9622C11.3332 12.8313 11.4242 12.6656 11.2922 12.0428C11.2278 11.7388 11.1913 11.3538 11.2046 10.959C11.4223 10.7382 11.6172 10.4951 11.786 10.2321C12.1051 10.1475 12.4252 10.0978 12.7033 10.0804L12.9937 10.0695C13.6022 10.0396 13.6771 9.87775 13.7496 9.57427L13.9472 8.71825C14.0151 8.41374 14.0187 8.23537 13.4849 7.94174L13.2282 7.80441C12.9851 7.66632 12.7183 7.48049 12.4681 7.26328C12.4312 6.95228 12.3625 6.65102 12.265 6.36219C12.3955 6.05526 12.5549 5.76903 12.7138 5.53674L12.885 5.29988C13.1892 4.86835 13.1687 4.69157 13.0311 4.49333L12.9974 4.44708L12.4072 3.71656C12.3015 3.58801 12.2129 3.49598 12.0682 3.47448L12.0111 3.46979C11.8912 3.46728 11.7347 3.50683 11.5107 3.60279L11.2483 3.71894C10.9968 3.82287 10.6954 3.91673 10.3795 3.98C10.1097 3.81156 9.82069 3.67091 9.51661 3.56327C9.37069 3.28543 9.25538 3.00004 9.17677 2.74373L9.09167 2.4328C8.94779 1.92476 8.79746 1.8295 8.55684 1.81164L8.49967 1.80874ZM7.99979 4.95002C9.5738 4.95002 10.8498 6.22601 10.8498 7.80002C10.8498 9.37403 9.5738 10.65 7.99979 10.65C6.42578 10.65 5.14979 9.37403 5.14979 7.80002C5.14979 6.22601 6.42578 4.95002 7.99979 4.95002ZM7.99979 6.30002C7.17137 6.30002 6.49979 6.97159 6.49979 7.80002C6.49979 8.62845 7.17137 9.30002 7.99979 9.30002C8.82822 9.30002 9.49979 8.62845 9.49979 7.80002C9.49979 6.97159 8.82822 6.30002 7.99979 6.30002Z" fill="#1DC9B7"/>
</svg>
